<?xml version="1.0" encoding="UTF-8" standalone="no"?>
<svg
   xmlns:dc="http://purl.org/dc/elements/1.1/"
   xmlns:cc="http://creativecommons.org/ns#"
   xmlns:rdf="http://www.w3.org/1999/02/22-rdf-syntax-ns#"
   xmlns:svg="http://www.w3.org/2000/svg"
   xmlns="http://www.w3.org/2000/svg"
   xmlns:sodipodi="http://sodipodi.sourceforge.net/DTD/sodipodi-0.dtd"
   xmlns:inkscape="http://www.inkscape.org/namespaces/inkscape"
   class="svg-icon"
   style="overflow:hidden;fill:currentColor"
   viewBox="0 0 283.60638 60.15007"
   version="1.1"
   id="svg22"
   sodipodi:docname="peanut-6.svg"
   width="283.60638"
   height="60.15007"
   inkscape:version="1.0.1 (3bc2e813f5, 2020-09-07)">
  <metadata
     id="metadata28">
    <rdf:RDF>
      <cc:Work
         rdf:about="">
        <dc:format>image/svg+xml</dc:format>
        <dc:type
           rdf:resource="http://purl.org/dc/dcmitype/StillImage" />
        <dc:title></dc:title>
      </cc:Work>
    </rdf:RDF>
  </metadata>
  <defs
     id="defs26" />
  <sodipodi:namedview
     pagecolor="#ffffff"
     bordercolor="#666666"
     borderopacity="1"
     objecttolerance="10"
     gridtolerance="10"
     guidetolerance="10"
     inkscape:pageopacity="0"
     inkscape:pageshadow="2"
     inkscape:window-width="1366"
     inkscape:window-height="747"
     id="namedview24"
     showgrid="false"
     fit-margin-top="0"
     fit-margin-left="0"
     fit-margin-right="0"
     fit-margin-bottom="0"
     inkscape:zoom="2.2460937"
     inkscape:cx="85.064897"
     inkscape:cy="52.23557"
     inkscape:window-x="0"
     inkscape:window-y="2"
     inkscape:window-maximized="1"
     inkscape:current-layer="svg22" />
  <g
     id="g129">
    <path
       d="m 2.1553945,52.763908 a 27.535952,7.3844395 0 1 0 55.0719025,0 27.535952,7.3844395 0 1 0 -55.0719025,0 z"
       fill="#dbd5c0"
       id="path2"
       style="stroke-width:0.0741409" />
    <path
       d="m 13.358093,23.685823 c 0,0 7.681004,-3.232546 11.009932,-10.053514 5.041586,-10.3574923 11.966351,-13.74573433 17.55658,-12.0034213 0,0 1.79421,0.467088 3.291858,0.03707 2.105603,-0.600542 2.869255,0.207594 2.943396,2.038876 0.04449,1.030559 1.201083,2.847012 1.497648,4.789505 0.63761,4.2334493 3.113917,10.2685233 -8.318616,17.4824383 0,0 -5.434532,3.225132 -6.094387,9.30469 C 34.65879,40.671518 27.696955,53.290308 15.43404,52.726838 -2.2115079,51.918698 -4.1095164,30.01746 13.358093,23.685823 Z"
       fill="#ffe0aa"
       id="path4"
       style="stroke-width:0.0741409" />
    <path
       d="M 49.65009,8.5017537 C 49.383183,6.6927147 48.36004,5.0097157 48.182102,3.9494997 47.94485,20.304995 39.878314,19.000114 32.049029,29.009143 c -3.951713,5.049 -3.143577,11.224945 -10.313007,15.888405 -7.488237,4.86365 -13.3972715,2.72098 -20.1440987,-2.40216 2.3873388,2.78028 3.4178979,9.05261 13.8421167,10.23886 12.196188,1.39385 19.22475,-12.0479 19.810464,-17.445365 0.659855,-6.086973 6.094387,-9.30469 6.094387,-9.30469 11.425122,-7.213916 8.948814,-13.24899 8.311199,-17.4824393 z"
       fill="#ffc261"
       id="path6"
       style="stroke-width:0.0741409" />
    <path
       d="m 7.241464,51.570238 c -0.3855327,0 -0.7710658,-0.19277 -0.9934886,-0.54123 -0.037069,-0.0593 -0.4077754,-0.63761 -0.8155503,-1.6311 -0.2446655,-0.60796 0.044485,-1.29747 0.6524404,-1.54213 0.6079555,-0.24467 1.2974666,0.0445 1.5421322,0.65244 0.3188059,0.78589 0.6005417,1.22333 0.6005417,1.23074 0.3558762,0.54864 0.2001806,1.28263 -0.3484625,1.63851 -0.1927668,0.13345 -0.4151896,0.19277 -0.6376129,0.19277 z M 42.109957,3.2599887 c -0.556057,0 -1.052801,-0.392947 -1.164013,-0.956418 -0.12604,-0.645027 0.289149,-1.267811 0.934176,-1.39385003 0.556057,-0.111212 1.126943,-0.192767 1.697828,-0.25208 0.65244,-0.05931 1.23074,0.41519003 1.290053,1.06763003 0.05931,0.652441 -0.41519,1.23074 -1.06763,1.290053 -0.496745,0.04448 -0.986075,0.118625 -1.460577,0.215009 -0.07414,0.02224 -0.148282,0.02966 -0.229837,0.02966 z M 11.311803,52.726838 c -0.61537,0 -1.141771,-0.48192 -1.178841,-1.1047 -0.04448,-0.65244 0.45226,-1.21592 1.1047,-1.2604 0.01483,0 0.548643,-0.0445 1.408679,-0.22984 0.637611,-0.14086 1.26781,0.26691 1.408677,0.91194 0.140868,0.63761 -0.266907,1.26781 -0.911933,1.40868 -1.037974,0.22242 -1.675586,0.2669 -1.749727,0.27432 z M 48.352626,7.2487717 h -0.0519 c -0.65244,-0.02966 -1.164013,-0.578299 -1.134357,-1.238153 0.02224,-0.474503 0.0074,-0.956419 -0.03707,-1.430921 -0.05931,-0.65244 0.41519,-1.23074 1.06763,-1.290053 0.652441,-0.05931 1.230737,0.41519 1.290051,1.06763 0.0519,0.585714 0.07414,1.178841 0.04449,1.757141 -0.02227,0.637612 -0.541227,1.134356 -1.17884,1.134356 z"
       fill="#802637"
       id="path8"
       style="stroke-width:0.0741409" />
    <path
       d="m 51.043943,9.5619697 c -0.08155,-0.437432 -0.155697,-0.845207 -0.215011,-1.238154 -0.177936,-1.178841 -0.630198,-2.290955 -0.986071,-3.180647 -0.229839,-0.570885 -0.489331,-1.215911 -0.504159,-1.490233 -0.05931,-1.371608 -0.46709,-2.313198 -1.238156,-2.86925503 -0.785894,-0.570885 -1.838696,-0.659855 -3.217717,-0.266908 -0.949004,0.274322 -2.209401,0.06673 -2.646832,-0.03707 -3.23996,-0.993489 -6.680101,-0.437432 -9.934889,1.60885903 -3.432726,2.157502 -6.546647,5.975761 -9.008126,11.0247603 -2.995295,6.146286 -9.927474,9.26762 -10.379734,9.4678 -4.5374267,1.653344 -8.1332636,4.43363 -10.3945628,8.03688 -2.07594674,3.306687 -2.90632547,7.154606 -2.35026828,10.831996 0.51157259,3.366 2.12043138,6.31681 4.64122388,8.52621 2.7135595,2.37992 6.3687082,3.74412 10.5650872,3.93688 0.289149,0.0148 0.578299,0.0222 0.860035,0.0222 6.761655,0 11.521504,-3.71445 14.361103,-6.90252 3.588422,-4.02585 5.508673,-8.7338 5.820065,-11.617885 0.585714,-5.397462 5.479017,-8.385343 5.523502,-8.414999 0.0074,0 0.02224,-0.0074 0.02966,-0.01483 4.819163,-3.03978 7.732903,-6.183357 8.919157,-9.608669 1.037974,-3.017537 0.548644,-5.679197 0.155697,-7.8144573 z m -2.40217,7.0433913 c -1.000901,2.898912 -3.58842,5.634713 -7.925666,8.370514 -0.415189,0.244665 -5.953519,3.699634 -6.650444,10.186968 -0.266907,2.416995 -2.016634,6.672685 -5.234351,10.290765 -2.513379,2.82477 -6.709757,6.10922 -12.603963,6.10922 h -0.192767 c 0.103797,-0.0148 0.200181,-0.0371 0.311392,-0.0742 1.075044,-0.41518 2.127845,-0.91934 3.136163,-1.49023 0.570885,-0.32622 0.771065,-1.04539 0.444845,-1.61627 -0.32622,-0.57089 -1.045387,-0.77107 -1.616272,-0.44485 -0.90452,0.51157 -1.853524,0.96384 -2.817357,1.33454 -0.61537,0.23725 -0.919348,0.92676 -0.682097,1.53472 0.155696,0.4226 0.526401,0.69692 0.941591,0.74882 -0.08897,0 -0.177939,-0.007 -0.266908,-0.007 -3.655149,-0.17052 -6.8061398,-1.32712 -9.111924,-3.35117 -0.548643,-0.48192 -1.0453873,-1.00832 -1.4902334,-1.57179 0.215009,0.19277 0.4967448,0.31139 0.8007223,0.31139 0.051899,0 0.1037974,-0.007 0.1631103,-0.007 0.6524405,-0.089 1.1047003,-0.6821 1.0157314,-1.33454 -0.074141,-0.54123 -0.1112117,-1.08987 -0.1112117,-1.6311 0,-0.50416 0.029657,-1.01573 0.096383,-1.51989 0.088969,-0.65244 -0.3707047,-1.24557 -1.0231451,-1.32712 -0.6524404,-0.089 -1.2455681,0.3707 -1.3271232,1.02314 -0.081555,0.60796 -0.1186255,1.21591 -0.1186255,1.82387 0,0.64503 0.044484,1.30488 0.1334537,1.94991 0.014828,0.13345 0.059313,0.25949 0.1186255,0.3707 -1.0972861,-1.50506 -1.8164534,-3.26962 -2.1130173,-5.18987 -0.4745021,-3.11392 0.2446652,-6.390949 2.0166341,-9.215719 1.9869776,-3.158405 5.1750393,-5.612471 9.2305499,-7.080462 0.01483,-0.0074 0.03707,-0.01483 0.0519,-0.02224 0.326221,-0.140868 8.133264,-3.484625 11.610474,-10.6244 2.268714,-4.6560523 5.078656,-8.1258493 8.140678,-10.0535133 1.290052,-0.808137 2.602347,-1.334538 3.899814,-1.571789 -0.541229,0.318806 -0.74141,1.03056 -0.430017,1.586617 0.215008,0.392947 0.622784,0.61537 1.037973,0.61537 0.192766,0 0.392947,-0.04449 0.570885,-0.148282 0.704339,-0.385533 1.453163,-0.711753 2.216815,-0.956418 0.400361,-0.12604 0.682097,-0.45226 0.785894,-0.830379 0.296564,0.06673 2.179744,0.511572 3.8924,0.02224 0.926762,-0.266907 1.171427,-0.103797 1.178842,-0.09638 0.0074,0.0074 0.215008,0.16311 0.252079,1.045387 0.02224,0.689511 0.32622,1.423507 0.667268,2.276128 0.05931,0.155696 0.12604,0.311392 0.185353,0.467088 -0.407776,0.126039 -0.74141,0.474502 -0.815551,0.926762 -0.12604,0.726581 -0.333634,1.475405 -0.61537,2.2094 -0.229837,0.6079563 0.07414,1.2974673 0.689511,1.5273043 0.140868,0.0519 0.281736,0.07414 0.422603,0.07414 0.474503,0 0.926761,-0.28915 1.104703,-0.763652 0.04449,-0.111211 0.08155,-0.222423 0.12604,-0.333634 0.355874,1.92025 0.719164,4.092581 -0.09639,6.457677 z"
       fill="#802637"
       id="path10"
       style="stroke-width:0.0741409" />
    <path
       d="m 10.333143,34.354706 c 0.311391,0 0.630198,-0.126039 0.867449,-0.378118 0.719167,-0.763652 1.542132,-1.51989 2.431823,-2.253886 0.504158,-0.415189 0.578299,-1.164013 0.16311,-1.668171 -0.415189,-0.504159 -1.164013,-0.5783 -1.668172,-0.16311 -0.971246,0.793308 -1.860938,1.623687 -2.6542457,2.46148 -0.4522599,0.474502 -0.4300176,1.223325 0.044485,1.675585 0.2298371,0.222423 0.5264017,0.32622 0.8155507,0.32622 z M 25.984299,21.461594 c 0.192766,0.118625 0.407775,0.177938 0.61537,0.177938 0.392947,0 0.785894,-0.20018 1.015731,-0.570885 0.281735,-0.459674 0.5264,-0.926762 0.726581,-1.39385 0.222423,-0.504159 0.437432,-1.03056 0.674683,-1.594031 l 0.133454,-0.32622 c 0.252079,-0.600542 -0.02966,-1.297467 -0.637613,-1.549546 -0.600542,-0.252079 -1.297467,0.02966 -1.549546,0.637612 l -0.140867,0.326221 c -0.229837,0.556057 -0.45226,1.075043 -0.659855,1.564374 -0.155696,0.36329 -0.348463,0.733995 -0.570885,1.097286 -0.341049,0.556057 -0.163111,1.290052 0.392947,1.631101 z M 15.671291,29.94332 c 0.229837,0 0.45226,-0.06673 0.659855,-0.200181 0.897105,-0.593128 1.868352,-1.186255 2.884083,-1.757141 0.570885,-0.318806 0.771066,-1.045388 0.45226,-1.616273 -0.318806,-0.570885 -1.045388,-0.771066 -1.616273,-0.45226 -1.06763,0.600542 -2.090775,1.223326 -3.039779,1.853524 -0.541229,0.363291 -0.689511,1.097287 -0.326221,1.64593 0.229838,0.341048 0.600542,0.526401 0.986075,0.526401 z M 32.204725,9.0652257 c 0.215009,0.16311 0.467088,0.244665 0.719167,0.244665 0.355877,0 0.711753,-0.16311 0.94159,-0.459674 0.689512,-0.90452 1.423507,-1.712656 2.187159,-2.402167 0.48933,-0.437431 0.5264,-1.186255 0.08897,-1.675586 -0.437432,-0.48933 -1.186255,-0.5264 -1.675586,-0.08897 -0.867449,0.785894 -1.705242,1.697828 -2.483722,2.720973 -0.400361,0.518987 -0.296564,1.260397 0.222423,1.660758 z m -3.269616,6.1240433 c 0.16311,0.07414 0.32622,0.111211 0.496744,0.111211 0.45226,0 0.874863,-0.252079 1.075044,-0.682097 0.518987,-1.119528 1.023145,-2.105603 1.534718,-3.002708 0.32622,-0.563471 0.133453,-1.290053 -0.437432,-1.6162733 -0.563471,-0.32622 -1.290052,-0.133454 -1.616272,0.4374313 -0.548644,0.956419 -1.082459,1.994392 -1.631102,3.180647 -0.274322,0.593128 -0.01483,1.297467 0.5783,1.571789 z M 8.8206669,34.888521 c -0.5412288,-0.36329 -1.2826387,-0.215009 -1.6459296,0.326221 -0.7191671,1.067626 -1.2974666,2.172326 -1.7423122,3.284446 -0.2372513,0.60795 0.059313,1.29746 0.6672684,1.54213 0.1408676,0.0519 0.2891495,0.0816 0.4374319,0.0816 0.4745021,0 0.9193477,-0.28914 1.1047003,-0.74882 0.3781189,-0.95642 0.8896917,-1.91284 1.5050614,-2.8396 0.3632909,-0.54123 0.2150085,-1.282636 -0.3262202,-1.645927 z M 21.698951,26.503179 c 0.222423,0 0.45226,-0.06673 0.645026,-0.185353 0.570886,-0.378118 1.705242,-1.178841 2.884084,-2.320611 0.467088,-0.45226 0.481916,-1.208498 0.02224,-1.675586 -0.45226,-0.467088 -1.208498,-0.481916 -1.675586,-0.02224 -1.030559,1.000903 -2.024048,1.705242 -2.528206,2.031462 -0.548643,0.355877 -0.696925,1.089872 -0.341049,1.638515 0.229837,0.341049 0.607956,0.533815 0.993489,0.533815 z m 9.052611,5.849722 c -0.630198,-0.185353 -1.290052,0.170524 -1.475405,0.800722 -0.311392,1.037974 -0.667268,2.04629 -1.052801,3.002705 -0.244665,0.60796 0.04449,1.30488 0.65244,1.54955 0.140868,0.0593 0.296564,0.089 0.444846,0.089 0.474502,0 0.911934,-0.28174 1.1047,-0.74882 0.41519,-1.02315 0.793308,-2.105608 1.126942,-3.217722 0.185353,-0.630199 -0.170524,-1.290053 -0.800722,-1.475405 z m 2.276127,-6.161114 c -0.585713,-0.296564 -1.297466,-0.06673 -1.59403,0.518987 -0.600542,1.186255 -0.926762,2.239056 -1.238154,3.291858 -0.185352,0.622784 0.177938,1.282639 0.808136,1.467991 0.111212,0.02966 0.222423,0.04449 0.333635,0.04449 0.518986,0 0.993488,-0.333635 1.134357,-0.852621 0.222422,-0.756238 0.5264,-1.794211 1.075043,-2.876669 0.296564,-0.585714 0.06673,-1.297467 -0.518987,-1.594031 z m -4.54484,12.351881 c -0.578299,-0.31139 -1.297467,-0.10379 -1.608859,0.4745 -0.504158,0.9416 -1.06763,1.8387 -1.668172,2.66908 -0.385533,0.5264 -0.266907,1.26781 0.266908,1.65334 0.207595,0.14828 0.45226,0.22243 0.689511,0.22243 0.370705,0 0.733995,-0.17053 0.963833,-0.48933 0.659854,-0.91935 1.275224,-1.89801 1.831281,-2.92116 0.311392,-0.5783 0.103797,-1.29747 -0.474502,-1.60886 z M 40.990428,17.198489 c -0.733995,0.696925 -1.549546,1.408678 -2.409581,2.113017 -0.504158,0.41519 -0.585713,1.156599 -0.170524,1.668172 0.229837,0.289149 0.570885,0.437432 0.919348,0.437432 0.259493,0 0.526401,-0.08897 0.748824,-0.266908 0.911933,-0.74141 1.771969,-1.490233 2.550449,-2.239057 0.474502,-0.45226 0.48933,-1.201084 0.03707,-1.675586 -0.452259,-0.474502 -1.201083,-0.48933 -1.675586,-0.03707 z m 5.664369,-5.204695 c -0.548643,-0.348463 -1.282638,-0.177939 -1.631101,0.378118 -0.518986,0.837793 -1.14177,1.683 -1.853524,2.520793 -0.422603,0.496745 -0.355876,1.245568 0.140869,1.668172 0.222422,0.192766 0.48933,0.281735 0.763651,0.281735 0.333635,0 0.667269,-0.140868 0.90452,-0.422603 0.77848,-0.926762 1.475405,-1.868352 2.053704,-2.795114 0.348463,-0.548643 0.177939,-1.282639 -0.378119,-1.631101 z M 23.204013,44.089418 c -0.726582,0.76365 -1.497647,1.46799 -2.313198,2.1056 -0.511573,0.40777 -0.607956,1.14918 -0.200181,1.66817 0.237251,0.29656 0.585714,0.45226 0.934176,0.45226 0.259493,0 0.518987,-0.0815 0.733996,-0.25949 0.90452,-0.71176 1.764554,-1.49765 2.565277,-2.33544 0.444846,-0.4745 0.430017,-1.22333 -0.04449,-1.67559 -0.474502,-0.44484 -1.223325,-0.43002 -1.675585,0.0445 z M 35.971086,21.320726 c -0.963833,0.785894 -1.80904,1.594031 -2.528207,2.424409 -0.430018,0.496745 -0.378119,1.245568 0.118625,1.675586 0.229837,0.192766 0.504159,0.28915 0.77848,0.28915 0.333635,0 0.667269,-0.133454 0.889692,-0.41519 0.630198,-0.719167 1.379022,-1.438334 2.231643,-2.127845 0.511572,-0.41519 0.593127,-1.156599 0.177938,-1.668172 -0.415189,-0.511572 -1.156599,-0.593127 -1.668171,-0.177938 z M 25.02788,29.476231 c -0.533815,-0.385532 -1.275224,-0.266907 -1.660757,0.259494 -0.607956,0.837793 -1.282639,1.727484 -1.986978,2.646832 -0.400361,0.518987 -0.303978,1.260396 0.215009,1.660757 0.222423,0.163111 0.474502,0.244666 0.726581,0.244666 0.355877,0 0.704339,-0.155696 0.941591,-0.459674 0.719167,-0.934177 1.401264,-1.838696 2.024048,-2.691317 0.385532,-0.533815 0.266907,-1.275225 -0.259494,-1.660758 z m 10.149897,-16.02186 c -0.756237,0.882277 -1.482819,1.749726 -2.164916,2.580105 -0.415189,0.504158 -0.333634,1.252982 0.170524,1.668172 0.222423,0.177937 0.481917,0.266907 0.748824,0.266907 0.341049,0 0.682097,-0.148282 0.919348,-0.430018 0.667269,-0.81555 1.386436,-1.668171 2.127846,-2.535621 0.430017,-0.496744 0.370704,-1.245567 -0.12604,-1.675585 -0.496744,-0.430018 -1.245568,-0.370705 -1.675586,0.12604 z m -6.531818,10.416804 c -0.563472,-0.333634 -1.290053,-0.148282 -1.623687,0.415189 -0.496744,0.837793 -1.089872,1.764555 -1.757141,2.75063 -0.363291,0.541229 -0.222422,1.275224 0.318806,1.645929 0.207595,0.140868 0.437432,0.207595 0.667269,0.207595 0.385533,0 0.756238,-0.177938 0.963832,-0.526401 0.696925,-1.023145 1.312296,-1.986978 1.838696,-2.869255 l -1.015731,-0.607956 1.023145,0.607956 c 0.333635,-0.563471 0.148282,-1.290053 -0.415189,-1.623687 z m 2.201986,-1.112114 c 0.585714,-0.830379 1.238154,-1.72007 1.949908,-2.646832 0.392947,-0.518987 0.296564,-1.260397 -0.222423,-1.660758 -0.518987,-0.392947 -1.260396,-0.296564 -1.660758,0.222423 -0.733995,0.956418 -1.408678,1.875766 -2.00922,2.735801 -0.378118,0.541229 -0.244665,1.275225 0.28915,1.653344 0.207595,0.148281 0.444846,0.215008 0.682097,0.215008 0.370705,0 0.741409,-0.177938 0.971246,-0.518986 z M 42.806882,7.9827677 c 0.311392,0 0.622784,-0.12604 0.852621,-0.363291 1.39385,-1.467991 2.305784,-2.379925 2.313198,-2.387338 0.467088,-0.459675 0.467088,-1.215912 0,-1.675586 -0.459674,-0.467088 -1.215912,-0.467088 -1.675586,0 -0.0074,0.0074 -0.934176,0.934176 -2.350268,2.424409 -0.45226,0.474502 -0.430018,1.223326 0.04449,1.675586 0.229837,0.215008 0.518987,0.32622 0.815551,0.32622 z m -3.647735,4.5151843 c 0.719167,-0.808136 1.467991,-1.638515 2.231643,-2.46148 0.444845,-0.4819163 0.415189,-1.2307403 -0.06673,-1.6755853 -0.481917,-0.444846 -1.23074,-0.41519 -1.675586,0.06673 -0.763652,0.837793 -1.527304,1.6755863 -2.253885,2.4911373 -0.437432,0.48933 -0.392947,1.238154 0.09638,1.675585 0.222423,0.207595 0.504159,0.303978 0.785894,0.303978 0.32622,0 0.652441,-0.133454 0.882278,-0.400361 z M 12.468402,45.082908 c -0.504158,-0.42261 -1.252982,-0.35588 -1.675586,0.14086 -0.77848,0.92676 -1.1862548,1.4161 -1.3864354,1.69783 -0.3855332,0.5264 -0.2669078,1.26781 0.2669073,1.65334 0.2075948,0.14829 0.4522601,0.22243 0.6895111,0.22243 0.370705,0 0.733995,-0.17053 0.971246,-0.48933 0.207595,-0.28174 0.793308,-0.97866 1.275225,-1.54955 0.422603,-0.50416 0.355876,-1.25298 -0.140868,-1.67558 z m 8.52621,-10.275942 c -0.511573,-0.407775 -1.260396,-0.32622 -1.668172,0.185353 -0.65244,0.822964 -1.356779,1.690409 -2.090774,2.580109 -0.41519,0.50415 -0.341049,1.25298 0.16311,1.66817 0.222422,0.17794 0.48933,0.26691 0.756237,0.26691 0.341049,0 0.682097,-0.14829 0.911934,-0.42261 0.733995,-0.8971 1.445749,-1.77938 2.113018,-2.60976 0.407775,-0.51157 0.32622,-1.260396 -0.185353,-1.668172 z m -4.21862,5.175042 c -0.496745,-0.41519 -1.245568,-0.35588 -1.668172,0.14828 -0.645026,0.77106 -1.334537,1.5792 -2.150088,2.54303 -0.422603,0.50416 -0.36329,1.25299 0.133454,1.67559 0.222423,0.18535 0.496744,0.28174 0.771066,0.28174 0.333634,0 0.667269,-0.14087 0.897105,-0.42261 0.822965,-0.96383 1.512476,-1.77938 2.164917,-2.55786 0.415189,-0.49675 0.355876,-1.24557 -0.148282,-1.66817 z"
       fill="#802637"
       id="path12"
       style="stroke-width:0.0741409" />
    <path
       d="m 51.43689,47.937328 c 4.129652,-4.12965 5.76075,-8.68932 6.035075,-13.478824 0,0 0.155696,-3.188061 0.103794,-4.448458 -0.163108,-3.514281 0.911935,-4.589325 -8.18516,-3.640321 -4.240863,-0.222423 -9.349175,1.905423 -13.478826,6.035074 -6.309396,6.309399 -7.947911,14.902329 -3.662564,19.195089 4.285348,4.29276 12.870871,2.64684 19.187681,-3.66256 z"
       fill="#ff797e"
       id="path14"
       style="stroke-width:0.0741409" />
    <path
       d="m 38.847755,49.783438 c -4.033268,0.18536 -6.635616,-2.21681 -9.312104,-5.64213 0.09638,2.28355 0.637612,5.6792 2.142673,7.18427 4.285347,4.29275 12.878284,2.64683 19.195094,-3.66257 1.853526,-1.85352 8.555867,-7.01373 5.530916,-21.352595 -0.860038,18.453685 -12.685519,23.250605 -17.556579,23.473025 z"
       fill="#e63f5b"
       id="path16"
       style="stroke-width:0.0741409" />
    <path
       d="m 38.551191,55.180898 c -2.861841,0 -5.338149,-0.93417 -7.147188,-2.74321 -2.357683,-2.35768 -3.23996,-5.87938 -2.468894,-9.89782 0.733995,-3.85533 2.913739,-7.755144 6.131457,-10.972862 4.21862,-4.21862 9.549355,-6.598545 14.286964,-6.383536 5.345563,-0.548643 7.317711,-0.415189 8.43724,0.578299 0.926763,0.830379 0.934174,1.979564 0.949003,3.20289 0,0.318806 0.0074,0.645026 0.02222,0.993489 0.05931,1.30488 -0.09639,4.426215 -0.1038,4.559669 v 0.0074 c -0.318805,5.619891 -2.409581,10.275941 -6.376124,14.249901 -3.217717,3.21771 -7.11753,5.39745 -10.97286,6.13145 -0.956418,0.18536 -1.875766,0.27432 -2.758043,0.27432 z M 48.767813,27.541153 c -1.786795,0 -3.744117,0.444845 -5.686609,1.297466 -2.253886,0.993489 -4.448458,2.513379 -6.339053,4.403973 -2.884083,2.884086 -4.83399,6.346466 -5.479016,9.734706 -0.61537,3.22513 0.02966,5.99059 1.816453,7.77739 1.786797,1.7868 4.552255,2.43182 7.777386,1.81645 3.395656,-0.64502 6.850625,-2.59493 9.734708,-5.47901 1.883182,-1.88319 3.262202,-3.88499 4.211205,-6.11663 0.852621,-2.01664 1.341955,-4.16673 1.475407,-6.583721 0.0074,-0.133454 0.155697,-3.158405 0.103799,-4.329832 -0.01481,-0.392947 -0.02227,-0.763652 -0.02227,-1.082458 -0.0074,-0.593128 -0.01481,-1.319709 -0.155697,-1.453163 -0.06672,-0.05931 -0.370702,-0.252079 -1.534716,-0.296564 -1.097288,-0.03707 -2.735803,0.05931 -5.167625,0.311393 -0.05931,0.0074 -0.126039,0.0074 -0.185353,0.0074 -0.177937,0 -0.363291,-0.0074 -0.548644,-0.0074 z"
       fill="#802637"
       id="path18"
       style="stroke-width:0.0741409" />
    <path
       d="m 51.303434,28.838619 c -1.868349,0.02966 -5.953517,1.579203 -7.280641,2.231643 -0.585713,0.28915 -0.830378,1.000903 -0.541228,1.586617 0.207594,0.415189 0.630198,0.659854 1.067629,0.659854 0.170525,0 0.348463,-0.04449 0.518987,-0.118626 0.556058,-0.274321 1.771969,-0.77848 3.136163,-1.230739 1.401266,-0.467088 2.572691,-0.748824 3.128747,-0.756238 0.659855,-0.0074 1.178842,-0.548643 1.17143,-1.201084 -0.0074,-0.659854 -0.541232,-1.178841 -1.201087,-1.171427 z m -9.208305,3.85533 c -0.570886,-0.200181 -1.201084,0.08897 -1.453163,0.637612 l -0.0074,0.01483 c -0.259493,0.578299 -0.02224,1.312295 0.548643,1.586616 0.170525,0.08156 0.348463,0.118626 0.518987,0.118626 0.518987,-0.02966 0.815551,-0.28915 0.978661,-0.511573 0.111211,-0.148281 0.170524,-0.32622 0.192766,-0.511572 0.111212,-0.822965 -0.341048,-1.178842 -0.77848,-1.334538 z"
       fill="#ffffff"
       id="path20"
       style="stroke-width:0.0741409" />
  </g>
  <text
     xml:space="preserve"
     style="font-style:normal;font-weight:normal;font-size:40px;line-height:1.25;font-family:sans-serif;fill:#000000;fill-opacity:1;stroke:none"
     x="63.26825"
     y="44.795036"
     id="text117"><tspan
       sodipodi:role="line"
       id="tspan115"
       x="63.26825"
       y="44.795036"
       style="font-style:normal;font-variant:normal;font-weight:bold;font-stretch:normal;font-family:Helvetica;-inkscape-font-specification:'Helvetica Bold'">ManíPelado</tspan></text>
</svg>
